<svg width="613" height="95" viewBox="0 0 613 95" xmlns="http://www.w3.org/2000/svg"><title>collins-logo</title><g fill="none" fill-rule="evenodd"><path d="M17.66 47.42c0 17.8 13.628 31.427 31.29 31.427 11.958 0 20.58-5.702 26.003-12.655L87.19 77.04c-8.065 10.29-21.693 17.52-38.52 17.52C20.025 94.56 0 73.703 0 47.28 0 20.86 19.746 0 48.393 0 62.02 0 73.7 5.145 81.906 13.072L70.503 25.17c-5.562-5.562-13.21-9.456-22.25-9.456-17.382.14-30.593 14.184-30.593 31.705zM149.628.14c28.368 0 47.975 21.136 47.975 47.28 0 26.143-19.607 47.28-47.836 47.28-28.368 0-47.837-21.137-47.837-47.28C101.79 21.275 121.4.14 149.628.14zm0 78.707c17.382 0 30.176-14.184 30.176-31.428S167.01 15.99 149.628 15.99c-17.383 0-30.176 14.184-30.176 31.427 0 17.243 12.932 31.427 30.176 31.427zM306.765 1.39h17.66v76.066h45.89V93.31h-63.69V1.39h.14zm-86.078 0h17.66v76.066h45.89V93.31h-63.69V1.39h.14zm175.076 0h17.66v91.78h-17.66V1.39zm49.088 0h12.516l51.174 59.796V1.39h17.66v91.78h-12.515L462.51 33.374V93.17h-17.66V1.39zm114.446 67.306c5.285 5.84 13.21 10.15 21.694 10.15 7.926 0 13.35-4.866 13.35-11.54 0-11.82-17.105-13.212-29.342-20.443-7.23-4.172-12.933-10.43-12.933-20.86C552.065 9.596 567.085.14 582.38.14c9.317 0 17.94 2.224 26.7 8.62l-9.178 13.073c-3.616-3.477-9.873-5.98-15.853-5.98-6.676 0-14.185 2.92-14.185 10.012 0 14.88 42.413 10.29 42.413 41.162 0 16.27-14.6 27.534-31.15 27.534-12.375 0-23.778-5.145-33.234-13.766l11.402-12.098z" fill="#ffffff"/></g></svg>
